# xmcd CD database file
#
# Track frame offsets:
#	150
#	14195
#	27265
#	38289
#	53197
#	65658
#	75816
#	87109
#	98479
#	109697
#	121130
#	130941
#	140779
#	151435
#	164690
#
# Disc length: 2322 seconds
#
# Revision: 0
# Processed by: cddbd v1.5.2PL0 Copyright (c) Steve Scherf et al.
# Submitted via: CDex 1.51
#
DISCID=bc09100f
DTITLE=Etta James - The Essential Modern Records Collection
DYEAR=2011
DGENRE=Blues
TTITLE0=The Wallflower 
TTITLE1=Hey! Henry
TTITLE2=Good Rockin Daddy
TTITLE3=Crazy Feeling
TTITLE4=W-O-M-A-N
TTITLE5=That's All
TTITLE6=Number One
TTITLE7=I'm A Fool
TTITLE8=Tears Of Joy
TTITLE9=Shortnin' Bread Rock
TTITLE10=Tough Lover
TTITLE11=Good Lookin'
TTITLE12=The Pick-Up
TTITLE13=Market Place
TTITLE14=Come What May
EXTD=YEAR: 2011
EXTT0=
EXTT1=
EXTT2=
EXTT3=
EXTT4=
EXTT5=
EXTT6=
EXTT7=
EXTT8=
EXTT9=
EXTT10=
EXTT11=
EXTT12=
EXTT13=
EXTT14=
PLAYORDER=
